<svg width="97" height="42" viewBox="0 0 97 42" fill="none" xmlns="http://www.w3.org/2000/svg">
<path d="M21 21C26.5228 21 31 25.4772 31 31V32C31 37.5228 26.5228 42 21 42H0V21H21ZM12.5 27C10.0147 27 8 29.0147 8 31.5C8 33.9853 10.0147 36 12.5 36C14.9853 36 17 33.9853 17 31.5C17 29.0147 14.9853 27 12.5 27Z" fill="black"/>
<path d="M21 0C26.5228 0 31 4.47715 31 10V11C31 16.5228 26.5228 21 21 21H0V0H21ZM12.5 6C10.0147 6 8 8.01472 8 10.5C8 12.9853 10.0147 15 12.5 15C14.9853 15 17 12.9853 17 10.5C17 8.01472 14.9853 6 12.5 6Z" fill="black"/>
<path d="M54 21C59.5228 21 64 25.4772 64 31V32C64 37.5228 59.5228 42 54 42H33V21H54ZM45.5 27C43.0147 27 41 29.0147 41 31.5C41 33.9853 43.0147 36 45.5 36C47.9853 36 50 33.9853 50 31.5C50 29.0147 47.9853 27 45.5 27Z" fill="black"/>
<path d="M54 0C59.5228 0 64 4.47715 64 10V11C64 16.5228 59.5228 21 54 21H33V0H54ZM45.5 6C43.0147 6 41 8.01472 41 10.5C41 12.9853 43.0147 15 45.5 15C47.9853 15 50 12.9853 50 10.5C50 8.01472 47.9853 6 45.5 6Z" fill="black"/>
<path d="M77 0C88.0457 1.77171e-07 97 8.95431 97 20V22C97 33.0457 88.0457 42 77 42H66V0H77ZM77.5 17C75.0147 17 73 19.0147 73 21.5C73 23.9853 75.0147 26 77.5 26C79.9853 26 82 23.9853 82 21.5C82 19.0147 79.9853 17 77.5 17Z" fill="black"/>
</svg>
